<mxfile host="app.diagrams.net" agent="Mozilla/5.0 (Macintosh; Intel Mac OS X 10_15_7) AppleWebKit/537.36 (KHTML, like Gecko) Chrome/129.0.0.0 Safari/537.36" version="24.8.9">
  <diagram name="第 1 页" id="4wiT2Izk5T23m0wZqfF5">
    <mxGraphModel dx="1026" dy="650" grid="1" gridSize="10" guides="1" tooltips="1" connect="1" arrows="1" fold="1" page="1" pageScale="1" pageWidth="827" pageHeight="1169" math="0" shadow="0">
      <root>
        <mxCell id="0" />
        <mxCell id="1" parent="0" />
        <mxCell id="UQfAMnTDeRdX-95wV4H_-6" style="edgeStyle=orthogonalEdgeStyle;rounded=0;orthogonalLoop=1;jettySize=auto;html=1;exitX=0;exitY=1;exitDx=0;exitDy=0;entryX=1;entryY=0;entryDx=0;entryDy=0;" parent="1" source="UQfAMnTDeRdX-95wV4H_-2" target="UQfAMnTDeRdX-95wV4H_-3" edge="1">
          <mxGeometry relative="1" as="geometry" />
        </mxCell>
        <mxCell id="UQfAMnTDeRdX-95wV4H_-2" value="0" style="ellipse;whiteSpace=wrap;html=1;aspect=fixed;" parent="1" vertex="1">
          <mxGeometry x="334" y="170" width="80" height="80" as="geometry" />
        </mxCell>
        <mxCell id="UQfAMnTDeRdX-95wV4H_-7" style="edgeStyle=orthogonalEdgeStyle;rounded=0;orthogonalLoop=1;jettySize=auto;html=1;exitX=1;exitY=1;exitDx=0;exitDy=0;entryX=0;entryY=0.5;entryDx=0;entryDy=0;" parent="1" source="UQfAMnTDeRdX-95wV4H_-3" target="UQfAMnTDeRdX-95wV4H_-4" edge="1">
          <mxGeometry relative="1" as="geometry" />
        </mxCell>
        <mxCell id="UQfAMnTDeRdX-95wV4H_-3" value="1" style="ellipse;whiteSpace=wrap;html=1;aspect=fixed;" parent="1" vertex="1">
          <mxGeometry x="230" y="300" width="80" height="80" as="geometry" />
        </mxCell>
        <mxCell id="UQfAMnTDeRdX-95wV4H_-4" value="2" style="ellipse;whiteSpace=wrap;html=1;aspect=fixed;" parent="1" vertex="1">
          <mxGeometry x="380" y="410" width="80" height="80" as="geometry" />
        </mxCell>
        <mxCell id="UQfAMnTDeRdX-95wV4H_-5" value="3" style="ellipse;whiteSpace=wrap;html=1;aspect=fixed;" parent="1" vertex="1">
          <mxGeometry x="460" y="290" width="80" height="80" as="geometry" />
        </mxCell>
        <mxCell id="UQfAMnTDeRdX-95wV4H_-8" style="edgeStyle=orthogonalEdgeStyle;rounded=0;orthogonalLoop=1;jettySize=auto;html=1;exitX=1;exitY=0.5;exitDx=0;exitDy=0;entryX=0.6;entryY=1.038;entryDx=0;entryDy=0;entryPerimeter=0;" parent="1" source="UQfAMnTDeRdX-95wV4H_-4" target="UQfAMnTDeRdX-95wV4H_-5" edge="1">
          <mxGeometry relative="1" as="geometry" />
        </mxCell>
        <mxCell id="UQfAMnTDeRdX-95wV4H_-9" style="edgeStyle=orthogonalEdgeStyle;rounded=0;orthogonalLoop=1;jettySize=auto;html=1;exitX=0;exitY=0.5;exitDx=0;exitDy=0;entryX=1;entryY=0.5;entryDx=0;entryDy=0;" parent="1" source="UQfAMnTDeRdX-95wV4H_-5" target="UQfAMnTDeRdX-95wV4H_-3" edge="1">
          <mxGeometry relative="1" as="geometry" />
        </mxCell>
        <mxCell id="UQfAMnTDeRdX-95wV4H_-10" value="DFS(0,0),mark 0&lt;div&gt;DFS(1,0),mark 1&lt;/div&gt;&lt;div&gt;DFS(2,1),mark 2&lt;/div&gt;&lt;div&gt;DFS(3,2),mark 3&lt;/div&gt;&lt;div&gt;&lt;br&gt;&lt;/div&gt;&lt;div&gt;&lt;br&gt;&lt;/div&gt;" style="text;html=1;align=center;verticalAlign=middle;whiteSpace=wrap;rounded=0;" parent="1" vertex="1">
          <mxGeometry x="640" y="190" width="180" height="30" as="geometry" />
        </mxCell>
      </root>
    </mxGraphModel>
  </diagram>
</mxfile>
